<svg width="189" height="30" viewBox="0 0 189 30" fill="none" xmlns="http://www.w3.org/2000/svg">
<rect width="15.0017" height="26.25" fill="#1565D8"/>
<rect x="16.876" width="15.0017" height="26.25" fill="#1565D8"/>
<rect x="33.7529" width="15.0017" height="26.25" fill="#1565D8"/>
<path d="M3.75 7.5H7.48535C8.94043 7.5 10.0195 7.71729 10.7227 8.15186C11.4307 8.58154 11.7847 9.25293 11.7847 10.166C11.7847 10.7666 11.6309 11.2793 11.3232 11.7041C11.0156 12.1289 10.6104 12.4023 10.1074 12.5244V12.5977C10.7715 12.7734 11.2524 13.0664 11.5503 13.4766C11.8481 13.8867 11.9971 14.4189 11.9971 15.0732C11.9971 16.0449 11.6309 16.8115 10.8984 17.373C10.1709 17.9297 9.17725 18.208 7.91748 18.208H3.75V7.5ZM6.64307 11.6089H7.51465C7.92969 11.6089 8.24951 11.5234 8.47412 11.3525C8.70361 11.1816 8.81836 10.9277 8.81836 10.5908C8.81836 9.99023 8.36426 9.68994 7.45605 9.68994H6.64307V11.6089ZM6.64307 13.7256V15.9741H7.66113C8.56445 15.9741 9.01611 15.5933 9.01611 14.8315C9.01611 14.4751 8.89404 14.2017 8.6499 14.0112C8.41064 13.8208 8.06152 13.7256 7.60254 13.7256H6.64307Z" fill="white"/>
<path d="M28.127 15.1099C28.127 15.7739 27.9585 16.3647 27.6216 16.8823C27.2847 17.395 26.7988 17.7954 26.1641 18.0835C25.5293 18.3667 24.7847 18.5083 23.9302 18.5083C23.2173 18.5083 22.6191 18.4595 22.1357 18.3618C21.6523 18.2593 21.1494 18.0835 20.627 17.8345V15.2563C21.1787 15.5396 21.7524 15.7617 22.3481 15.9229C22.9438 16.0791 23.4907 16.1572 23.9888 16.1572C24.4185 16.1572 24.7334 16.084 24.9336 15.9375C25.1338 15.7861 25.2339 15.5933 25.2339 15.3589C25.2339 15.2124 25.1924 15.0854 25.1094 14.978C25.0312 14.8657 24.9019 14.7534 24.7212 14.6411C24.5454 14.5288 24.0718 14.2993 23.3003 13.9526C22.6021 13.6353 22.0771 13.3276 21.7256 13.0298C21.3789 12.7319 21.1201 12.3901 20.9492 12.0044C20.7832 11.6187 20.7002 11.1621 20.7002 10.6348C20.7002 9.64844 21.0591 8.87939 21.7769 8.32764C22.4946 7.77588 23.481 7.5 24.7358 7.5C25.8442 7.5 26.9746 7.75635 28.127 8.26904L27.2407 10.5029C26.2397 10.0439 25.3755 9.81445 24.6479 9.81445C24.272 9.81445 23.9985 9.88037 23.8276 10.0122C23.6567 10.144 23.5713 10.3076 23.5713 10.5029C23.5713 10.7129 23.6787 10.9009 23.8936 11.0669C24.1133 11.2329 24.7041 11.5356 25.666 11.9751C26.5889 12.3901 27.2285 12.8369 27.585 13.3154C27.9463 13.7891 28.127 14.3872 28.127 15.1099Z" fill="white"/>
<path d="M46.7639 18.208H42.9695L39.0579 10.6641H38.992C39.0848 11.8506 39.1312 12.7563 39.1312 13.3813V18.208H36.5674V7.5H40.3471L44.244 14.9414H44.288C44.2196 13.8623 44.1854 12.9956 44.1854 12.3413V7.5H46.7639V18.208Z" fill="white"/>
<rect y="28.1252" width="48.7556" height="1.875" fill="#1565D8"/>
<path d="M55.5372 1.47949H59.2729C60.7282 1.47949 61.8074 1.69678 62.5106 2.13135C63.2187 2.56104 63.5728 3.23242 63.5728 4.14551C63.5728 4.74609 63.4189 5.25879 63.1113 5.68359C62.8036 6.1084 62.3983 6.38184 61.8953 6.50391V6.57715C62.5595 6.75293 63.0405 7.0459 63.3384 7.45605C63.6362 7.86621 63.7852 8.39844 63.7852 9.05273C63.7852 10.0244 63.4189 10.791 62.6864 11.3525C61.9588 11.9092 60.965 12.1875 59.7051 12.1875H55.5372V1.47949ZM58.4306 5.58838H59.3022C59.7173 5.58838 60.0372 5.50293 60.2618 5.33203C60.4914 5.16113 60.6061 4.90723 60.6061 4.57031C60.6061 3.96973 60.152 3.66943 59.2436 3.66943H58.4306V5.58838ZM58.4306 7.70508V9.95361H59.4488C60.3522 9.95361 60.8039 9.57275 60.8039 8.81104C60.8039 8.45459 60.6818 8.18115 60.4376 7.99072C60.1983 7.80029 59.8492 7.70508 59.3902 7.70508H58.4306Z" fill="#183B56"/>
<path d="M68.3414 12.1875H65.4773V0.791016H68.3414V12.1875Z" fill="#183B56"/>
<path d="M78.2522 8.02002C78.2522 9.37744 77.8859 10.437 77.1534 11.1987C76.4258 11.9556 75.4052 12.334 74.0916 12.334C72.8316 12.334 71.8281 11.9458 71.0809 11.1694C70.3387 10.3931 69.9675 9.34326 69.9675 8.02002C69.9675 6.66748 70.3314 5.61768 71.059 4.87061C71.7915 4.11865 72.817 3.74268 74.1355 3.74268C74.951 3.74268 75.6713 3.91602 76.2964 4.2627C76.9215 4.60938 77.4025 5.10742 77.7394 5.75684C78.0813 6.40137 78.2522 7.15576 78.2522 8.02002ZM72.8756 8.02002C72.8756 8.73291 72.9708 9.27734 73.1613 9.65332C73.3517 10.0244 73.6716 10.21 74.1209 10.21C74.5652 10.21 74.8778 10.0244 75.0585 9.65332C75.244 9.27734 75.3368 8.73291 75.3368 8.02002C75.3368 7.31201 75.244 6.77734 75.0585 6.41602C74.8729 6.05469 74.5555 5.87402 74.1062 5.87402C73.6667 5.87402 73.3517 6.05469 73.1613 6.41602C72.9708 6.77246 72.8756 7.30713 72.8756 8.02002Z" fill="#183B56"/>
<path d="M83.6727 12.334C82.3152 12.334 81.2848 11.9678 80.5816 11.2354C79.8832 10.5029 79.5341 9.45068 79.5341 8.07861C79.5341 6.70166 79.9125 5.63477 80.6695 4.87793C81.4264 4.12109 82.5032 3.74268 83.8998 3.74268C84.8618 3.74268 85.7677 3.95264 86.6174 4.37256L85.775 6.48926C85.4283 6.33789 85.1084 6.21826 84.8154 6.13037C84.5224 6.0376 84.2172 5.99121 83.8998 5.99121C83.4359 5.99121 83.077 6.17188 82.823 6.5332C82.5691 6.89453 82.4421 7.40479 82.4421 8.06396C82.4421 9.39209 82.9329 10.0562 83.9145 10.0562C84.7544 10.0562 85.5602 9.81201 86.3317 9.32373V11.6016C85.5943 12.0898 84.708 12.334 83.6727 12.334Z" fill="#183B56"/>
<path d="M90.7561 7.52197C91.1028 6.97021 91.3982 6.54053 91.6424 6.23291L93.503 3.88916H96.6967L93.8179 7.41943L96.8798 12.1875H93.6055L91.7889 9.21387L90.8586 9.92432V12.1875H87.9799V0.791016H90.8586V5.27344C90.8586 6.04004 90.8049 6.78955 90.6975 7.52197H90.7561Z" fill="#183B56"/>
<path d="M101.648 12.334C100.291 12.334 99.2605 11.9678 98.5573 11.2354C97.8589 10.5029 97.5098 9.45068 97.5098 8.07861C97.5098 6.70166 97.8882 5.63477 98.6452 4.87793C99.4021 4.12109 100.479 3.74268 101.876 3.74268C102.838 3.74268 103.743 3.95264 104.593 4.37256L103.751 6.48926C103.404 6.33789 103.084 6.21826 102.791 6.13037C102.498 6.0376 102.193 5.99121 101.876 5.99121C101.412 5.99121 101.053 6.17188 100.799 6.5332C100.545 6.89453 100.418 7.40479 100.418 8.06396C100.418 9.39209 100.909 10.0562 101.89 10.0562C102.73 10.0562 103.536 9.81201 104.307 9.32373V11.6016C103.57 12.0898 102.684 12.334 101.648 12.334Z" fill="#183B56"/>
<path d="M111.178 12.1875V7.66113C111.178 6.54785 110.849 5.99121 110.189 5.99121C109.721 5.99121 109.374 6.18896 109.149 6.58447C108.93 6.9751 108.82 7.62695 108.82 8.54004V12.1875H105.956V0.791016H108.82V2.40967C108.82 3.14209 108.781 3.97705 108.702 4.91455H108.834C109.108 4.48486 109.433 4.18213 109.809 4.00635C110.185 3.83057 110.622 3.74268 111.12 3.74268C112.048 3.74268 112.768 4.01123 113.281 4.54834C113.798 5.08057 114.057 5.82764 114.057 6.78955V12.1875H111.178Z" fill="#183B56"/>
<path d="M121.419 12.1875L120.869 11.0889H120.811C120.425 11.5674 120.032 11.8945 119.631 12.0703C119.231 12.2461 118.713 12.334 118.079 12.334C117.297 12.334 116.682 12.0996 116.233 11.6309C115.783 11.1621 115.559 10.5029 115.559 9.65332C115.559 8.76953 115.866 8.11279 116.482 7.68311C117.097 7.24854 117.988 7.00439 119.155 6.95068L120.54 6.90674V6.78955C120.54 6.10596 120.203 5.76416 119.529 5.76416C118.923 5.76416 118.154 5.96924 117.222 6.37939L116.394 4.48975C117.361 3.9917 118.582 3.74268 120.056 3.74268C121.121 3.74268 121.944 4.00635 122.525 4.53369C123.111 5.06104 123.404 5.79834 123.404 6.74561V12.1875H121.419ZM119.295 10.3125C119.641 10.3125 119.937 10.2026 120.181 9.98291C120.43 9.76318 120.554 9.47754 120.554 9.12598V8.48145L119.895 8.51074C118.953 8.54492 118.481 8.8916 118.481 9.55078C118.481 10.0586 118.752 10.3125 119.295 10.3125Z" fill="#183B56"/>
<path d="M128.231 12.1875H125.367V3.88916H128.231V12.1875ZM125.294 1.82373C125.294 1.39404 125.413 1.07422 125.653 0.864258C125.892 0.654297 126.278 0.549316 126.81 0.549316C127.342 0.549316 127.731 0.656738 127.975 0.871582C128.219 1.08643 128.341 1.40381 128.341 1.82373C128.341 2.66357 127.831 3.0835 126.81 3.0835C125.799 3.0835 125.294 2.66357 125.294 1.82373Z" fill="#183B56"/>
<path d="M135.468 12.1875V7.66113C135.468 7.10938 135.388 6.69434 135.227 6.41602C135.07 6.13281 134.816 5.99121 134.465 5.99121C133.981 5.99121 133.632 6.18408 133.417 6.56982C133.202 6.95557 133.095 7.61719 133.095 8.55469V12.1875H130.231V3.88916H132.392L132.751 4.91455H132.919C133.163 4.52393 133.5 4.23096 133.93 4.03564C134.365 3.84033 134.863 3.74268 135.424 3.74268C136.342 3.74268 137.055 4.00879 137.563 4.54102C138.076 5.07324 138.332 5.82275 138.332 6.78955V12.1875H135.468Z" fill="#183B56"/>
<path d="M139.607 9.30908V7.02393H143.746V9.30908H139.607Z" fill="#183B56"/>
<path d="M150.126 3.74268C151.029 3.74268 151.745 4.12109 152.272 4.87793C152.804 5.63477 153.07 6.68213 153.07 8.02002C153.07 9.36768 152.802 10.4248 152.265 11.1914C151.732 11.9531 150.99 12.334 150.038 12.334C149.73 12.334 149.457 12.2998 149.217 12.2314C148.978 12.168 148.763 12.0776 148.573 11.9604C148.387 11.8433 148.17 11.6479 147.921 11.3745H147.745L147.291 12.1875H145.057V0.791016H147.921V3.36914C147.921 3.67676 147.887 4.20654 147.818 4.9585H147.921C148.199 4.52881 148.519 4.21875 148.88 4.02832C149.247 3.83789 149.662 3.74268 150.126 3.74268ZM149.078 5.99121C148.678 5.99121 148.385 6.13037 148.199 6.40869C148.014 6.68701 147.921 7.12402 147.921 7.71973V8.12256C147.921 8.80127 148.014 9.28955 148.199 9.5874C148.385 9.88037 148.688 10.0269 149.108 10.0269C149.444 10.0269 149.703 9.85596 149.884 9.51416C150.065 9.16748 150.155 8.65967 150.155 7.99072C150.155 6.65771 149.796 5.99121 149.078 5.99121Z" fill="#183B56"/>
<path d="M160.124 12.1875L159.575 11.0889H159.516C159.131 11.5674 158.738 11.8945 158.337 12.0703C157.937 12.2461 157.419 12.334 156.784 12.334C156.003 12.334 155.388 12.0996 154.938 11.6309C154.489 11.1621 154.264 10.5029 154.264 9.65332C154.264 8.76953 154.572 8.11279 155.187 7.68311C155.803 7.24854 156.694 7.00439 157.861 6.95068L159.245 6.90674V6.78955C159.245 6.10596 158.908 5.76416 158.235 5.76416C157.629 5.76416 156.86 5.96924 155.927 6.37939L155.099 4.48975C156.066 3.9917 157.287 3.74268 158.762 3.74268C159.827 3.74268 160.649 4.00635 161.23 4.53369C161.817 5.06104 162.11 5.79834 162.11 6.74561V12.1875H160.124ZM158 10.3125C158.347 10.3125 158.642 10.2026 158.886 9.98291C159.136 9.76318 159.26 9.47754 159.26 9.12598V8.48145L158.601 8.51074C157.658 8.54492 157.187 8.8916 157.187 9.55078C157.187 10.0586 157.458 10.3125 158 10.3125Z" fill="#183B56"/>
<path d="M170.467 9.63867C170.467 10.5273 170.165 11.1987 169.559 11.6528C168.954 12.1069 168.084 12.334 166.951 12.334C166.336 12.334 165.801 12.2998 165.347 12.2314C164.893 12.168 164.429 12.0483 163.955 11.8726V9.58008C164.4 9.77539 164.886 9.93652 165.413 10.0635C165.945 10.1904 166.419 10.2539 166.834 10.2539C167.454 10.2539 167.764 10.1123 167.764 9.8291C167.764 9.68262 167.677 9.55322 167.501 9.44092C167.33 9.32373 166.827 9.09912 165.992 8.76709C165.23 8.45459 164.698 8.10059 164.395 7.70508C164.092 7.30469 163.941 6.79932 163.941 6.18896C163.941 5.41748 164.239 4.81689 164.834 4.38721C165.43 3.95752 166.273 3.74268 167.362 3.74268C167.909 3.74268 168.421 3.80371 168.9 3.92578C169.383 4.04297 169.884 4.21631 170.401 4.4458L169.625 6.2915C169.244 6.12061 168.841 5.97656 168.416 5.85938C167.992 5.7373 167.645 5.67627 167.376 5.67627C166.907 5.67627 166.673 5.79102 166.673 6.02051C166.673 6.16211 166.754 6.28418 166.915 6.38672C167.081 6.48438 167.554 6.68701 168.336 6.99463C168.917 7.23389 169.349 7.46826 169.632 7.69775C169.92 7.92725 170.13 8.19824 170.262 8.51074C170.399 8.81836 170.467 9.19434 170.467 9.63867Z" fill="#183B56"/>
<path d="M176.064 12.334C174.682 12.334 173.607 11.9678 172.841 11.2354C172.079 10.498 171.698 9.45068 171.698 8.09326C171.698 6.69189 172.052 5.61768 172.76 4.87061C173.468 4.11865 174.479 3.74268 175.793 3.74268C177.043 3.74268 178.007 4.06982 178.686 4.72412C179.37 5.37354 179.712 6.31104 179.712 7.53662V8.81104H174.591C174.611 9.2749 174.779 9.63867 175.097 9.90234C175.419 10.166 175.856 10.2979 176.408 10.2979C176.911 10.2979 177.372 10.2515 177.792 10.1587C178.217 10.061 178.676 9.89746 179.17 9.66797V11.7261C178.72 11.9556 178.256 12.1143 177.778 12.2021C177.299 12.29 176.728 12.334 176.064 12.334ZM175.895 5.69092C175.558 5.69092 175.275 5.79834 175.046 6.01318C174.821 6.22314 174.689 6.55518 174.65 7.00928H177.111C177.101 6.60889 176.987 6.28906 176.767 6.0498C176.552 5.81055 176.262 5.69092 175.895 5.69092Z" fill="#183B56"/>
<path d="M183.909 12.334C183.318 12.334 182.8 12.1655 182.356 11.8286C181.916 11.4917 181.575 10.9961 181.33 10.3418C181.091 9.6875 180.972 8.92334 180.972 8.04932C180.972 6.70166 181.243 5.64697 181.785 4.88525C182.327 4.12354 183.071 3.74268 184.019 3.74268C184.483 3.74268 184.888 3.83545 185.235 4.021C185.586 4.20654 185.906 4.51904 186.194 4.9585H186.253C186.16 4.30908 186.114 3.65967 186.114 3.01025V0.791016H189V12.1875H186.839L186.224 11.1401H186.114C185.621 11.936 184.886 12.334 183.909 12.334ZM185.081 10.0708C185.54 10.0708 185.862 9.92676 186.048 9.63867C186.238 9.35059 186.341 8.90625 186.355 8.30566V8.07861C186.355 7.34619 186.25 6.82617 186.04 6.51855C185.831 6.20605 185.501 6.0498 185.052 6.0498C184.676 6.0498 184.383 6.22803 184.173 6.58447C183.967 6.93604 183.865 7.43896 183.865 8.09326C183.865 8.73779 183.97 9.22852 184.18 9.56543C184.39 9.90234 184.69 10.0708 185.081 10.0708Z" fill="#183B56"/>
<path d="M62.5399 23.9355C62.5399 24.5996 62.3715 25.1904 62.0345 25.708C61.6975 26.2207 61.2116 26.6211 60.5768 26.9092C59.942 27.1924 59.1973 27.334 58.3427 27.334C57.6297 27.334 57.0315 27.2852 56.548 27.1875C56.0646 27.085 55.5616 26.9092 55.0391 26.6602V24.082C55.5909 24.3652 56.1647 24.5874 56.7605 24.7485C57.3562 24.9048 57.9032 24.9829 58.4013 24.9829C58.831 24.9829 59.146 24.9097 59.3462 24.7632C59.5464 24.6118 59.6465 24.4189 59.6465 24.1846C59.6465 24.0381 59.605 23.9111 59.522 23.8037C59.4439 23.6914 59.3145 23.5791 59.1338 23.4668C58.958 23.3545 58.4843 23.125 57.7127 22.7783C57.0144 22.4609 56.4894 22.1533 56.1378 21.8555C55.7911 21.5576 55.5323 21.2158 55.3614 20.8301C55.1953 20.4443 55.1123 19.9878 55.1123 19.4604C55.1123 18.4741 55.4712 17.7051 56.1891 17.1533C56.907 16.6016 57.8934 16.3257 59.1484 16.3257C60.2569 16.3257 61.3875 16.582 62.5399 17.0947L61.6536 19.3286C60.6525 18.8696 59.7881 18.6401 59.0605 18.6401C58.6845 18.6401 58.411 18.7061 58.2401 18.8379C58.0692 18.9697 57.9837 19.1333 57.9837 19.3286C57.9837 19.5386 58.0912 19.7266 58.306 19.8926C58.5258 20.0586 59.1167 20.3613 60.0787 20.8008C61.0017 21.2158 61.6414 21.6626 61.9979 22.1411C62.3592 22.6147 62.5399 23.2129 62.5399 23.9355Z" fill="#183B56"/>
<path d="M68.0337 27.334C66.6517 27.334 65.5774 26.9678 64.8107 26.2354C64.0489 25.498 63.668 24.4507 63.668 23.0933C63.668 21.6919 64.022 20.6177 64.7301 19.8706C65.4382 19.1187 66.4491 18.7427 67.7627 18.7427C69.0128 18.7427 69.9773 19.0698 70.6561 19.7241C71.3398 20.3735 71.6816 21.311 71.6816 22.5366V23.811H66.5614C66.5809 24.2749 66.7494 24.6387 67.0668 24.9023C67.3891 25.166 67.8262 25.2979 68.378 25.2979C68.881 25.2979 69.3425 25.2515 69.7624 25.1587C70.1873 25.061 70.6463 24.8975 71.1396 24.668V26.7261C70.6903 26.9556 70.2264 27.1143 69.7478 27.2021C69.2692 27.29 68.6979 27.334 68.0337 27.334ZM67.8652 20.6909C67.5283 20.6909 67.2451 20.7983 67.0155 21.0132C66.7909 21.2231 66.6591 21.5552 66.62 22.0093H69.0812C69.0714 21.6089 68.9567 21.2891 68.7369 21.0498C68.5221 20.8105 68.2315 20.6909 67.8652 20.6909Z" fill="#183B56"/>
<path d="M78.3108 18.7427C78.5598 18.7427 78.7967 18.7622 79.0213 18.8013L79.1825 18.8306L78.9261 21.5332C78.6917 21.4746 78.3669 21.4453 77.9519 21.4453C77.3268 21.4453 76.8726 21.5894 76.5894 21.8774C76.3062 22.1606 76.1645 22.5708 76.1645 23.1079V27.1875H73.3004V18.8892H75.432L75.8789 20.2148H76.018C76.2573 19.7754 76.5894 19.4214 77.0143 19.1528C77.444 18.8794 77.8762 18.7427 78.3108 18.7427Z" fill="#183B56"/>
<path d="M82.5227 27.1875L79.3583 18.8892H82.3469L83.7533 23.7964C83.7582 23.8208 83.768 23.8623 83.7826 23.9209C83.7973 23.9795 83.8119 24.0503 83.8266 24.1333C83.8412 24.2114 83.8534 24.2969 83.8632 24.3896C83.8778 24.4775 83.8852 24.5605 83.8852 24.6387H83.9364C83.9364 24.3848 83.9804 24.1089 84.0683 23.811L85.5406 18.8892H88.5219L85.3575 27.1875H82.5227Z" fill="#183B56"/>
<path d="M92.3969 27.1875H89.5328V18.8892H92.3969V27.1875ZM89.4595 16.8237C89.4595 16.394 89.5792 16.0742 89.8185 15.8643C90.0577 15.6543 90.4435 15.5493 90.9758 15.5493C91.5081 15.5493 91.8963 15.6567 92.1405 15.8716C92.3847 16.0864 92.5068 16.4038 92.5068 16.8237C92.5068 17.6636 91.9964 18.0835 90.9758 18.0835C89.965 18.0835 89.4595 17.6636 89.4595 16.8237Z" fill="#183B56"/>
<path d="M98.1764 27.334C96.8188 27.334 95.7884 26.9678 95.0852 26.2354C94.3869 25.5029 94.0377 24.4507 94.0377 23.0786C94.0377 21.7017 94.4162 20.6348 95.1731 19.8779C95.93 19.1211 97.0068 18.7427 98.4034 18.7427C99.3655 18.7427 100.271 18.9526 101.121 19.3726L100.279 21.4893C99.9319 21.3379 99.6121 21.2183 99.3191 21.1304C99.0261 21.0376 98.7209 20.9912 98.4034 20.9912C97.9395 20.9912 97.5806 21.1719 97.3267 21.5332C97.0727 21.8945 96.9457 22.4048 96.9457 23.064C96.9457 24.3921 97.4365 25.0562 98.4181 25.0562C99.258 25.0562 100.064 24.812 100.835 24.3237V26.6016C100.098 27.0898 99.2116 27.334 98.1764 27.334Z" fill="#183B56"/>
<path d="M106.49 27.334C105.108 27.334 104.034 26.9678 103.267 26.2354C102.505 25.498 102.125 24.4507 102.125 23.0933C102.125 21.6919 102.479 20.6177 103.187 19.8706C103.895 19.1187 104.906 18.7427 106.219 18.7427C107.469 18.7427 108.434 19.0698 109.113 19.7241C109.796 20.3735 110.138 21.311 110.138 22.5366V23.811H105.018C105.038 24.2749 105.206 24.6387 105.523 24.9023C105.846 25.166 106.283 25.2979 106.835 25.2979C107.338 25.2979 107.799 25.2515 108.219 25.1587C108.644 25.061 109.103 24.8975 109.596 24.668V26.7261C109.147 26.9556 108.683 27.1143 108.204 27.2021C107.726 27.29 107.154 27.334 106.49 27.334ZM106.322 20.6909C105.985 20.6909 105.702 20.7983 105.472 21.0132C105.247 21.2231 105.116 21.5552 105.077 22.0093H107.538C107.528 21.6089 107.413 21.2891 107.194 21.0498C106.979 20.8105 106.688 20.6909 106.322 20.6909Z" fill="#183B56"/>
<path d="M126.019 27.1875H122.225L118.313 19.6436H118.247C118.34 20.8301 118.386 21.7358 118.386 22.3608V27.1875H115.822V16.4795H119.602L123.499 23.9209H123.543C123.475 22.8418 123.44 21.9751 123.44 21.3208V16.4795H126.019V27.1875Z" fill="#183B56"/>
<path d="M132.172 27.334C130.79 27.334 129.716 26.9678 128.949 26.2354C128.187 25.498 127.806 24.4507 127.806 23.0933C127.806 21.6919 128.16 20.6177 128.868 19.8706C129.576 19.1187 130.587 18.7427 131.901 18.7427C133.151 18.7427 134.116 19.0698 134.794 19.7241C135.478 20.3735 135.82 21.311 135.82 22.5366V23.811H130.7C130.719 24.2749 130.888 24.6387 131.205 24.9023C131.527 25.166 131.964 25.2979 132.516 25.2979C133.019 25.2979 133.481 25.2515 133.901 25.1587C134.326 25.061 134.785 24.8975 135.278 24.668V26.7261C134.829 26.9556 134.365 27.1143 133.886 27.2021C133.407 27.29 132.836 27.334 132.172 27.334ZM132.004 20.6909C131.667 20.6909 131.383 20.7983 131.154 21.0132C130.929 21.2231 130.797 21.5552 130.758 22.0093H133.219C133.21 21.6089 133.095 21.2891 132.875 21.0498C132.66 20.8105 132.37 20.6909 132.004 20.6909Z" fill="#183B56"/>
<path d="M141.504 25.0708C141.89 25.0708 142.351 24.9756 142.889 24.7852V26.8726C142.503 27.0386 142.134 27.1558 141.782 27.2241C141.436 27.2974 141.028 27.334 140.559 27.334C139.597 27.334 138.904 27.0996 138.479 26.6309C138.054 26.1572 137.842 25.4321 137.842 24.4556V21.0352H136.838V19.8706L138.113 18.9697L138.852 17.2266H140.728V18.8892H142.764V21.0352H140.728V24.2651C140.728 24.8022 140.986 25.0708 141.504 25.0708Z" fill="#183B56"/>
<path d="M151.481 27.1875L150.543 23.2324L150.323 22.0386L150.177 21.0791H150.133C149.894 22.4463 149.733 23.3081 149.65 23.6646L148.807 27.1875H145.797L143.533 18.8892H146.353L147.027 22.0752C147.242 23.1689 147.367 24.0771 147.401 24.7998H147.445C147.459 24.3506 147.594 23.4961 147.848 22.2363L148.617 18.8892H151.781L152.484 22.2803C152.709 23.3594 152.851 24.1992 152.909 24.7998H152.953C152.982 24.4287 153.031 23.9673 153.1 23.4155C153.168 22.8589 153.244 22.4121 153.327 22.0752L154.059 18.8892H156.821L154.543 27.1875H151.481Z" fill="#183B56"/>
<path d="M165.919 23.02C165.919 24.3774 165.552 25.437 164.82 26.1987C164.092 26.9556 163.072 27.334 161.758 27.334C160.498 27.334 159.494 26.9458 158.747 26.1694C158.005 25.3931 157.634 24.3433 157.634 23.02C157.634 21.6675 157.998 20.6177 158.725 19.8706C159.458 19.1187 160.483 18.7427 161.802 18.7427C162.617 18.7427 163.338 18.916 163.963 19.2627C164.588 19.6094 165.069 20.1074 165.406 20.7568C165.748 21.4014 165.919 22.1558 165.919 23.02ZM160.542 23.02C160.542 23.7329 160.637 24.2773 160.828 24.6533C161.018 25.0244 161.338 25.21 161.787 25.21C162.232 25.21 162.544 25.0244 162.725 24.6533C162.91 24.2773 163.003 23.7329 163.003 23.02C163.003 22.312 162.91 21.7773 162.725 21.416C162.539 21.0547 162.222 20.874 161.773 20.874C161.333 20.874 161.018 21.0547 160.828 21.416C160.637 21.7725 160.542 22.3071 160.542 23.02Z" fill="#183B56"/>
<path d="M172.57 18.7427C172.819 18.7427 173.056 18.7622 173.28 18.8013L173.441 18.8306L173.185 21.5332C172.951 21.4746 172.626 21.4453 172.211 21.4453C171.586 21.4453 171.132 21.5894 170.848 21.8774C170.565 22.1606 170.423 22.5708 170.423 23.1079V27.1875H167.559V18.8892H169.691L170.138 20.2148H170.277C170.516 19.7754 170.848 19.4214 171.273 19.1528C171.703 18.8794 172.135 18.7427 172.57 18.7427Z" fill="#183B56"/>
<path d="M177.382 22.522C177.729 21.9702 178.024 21.5405 178.269 21.2329L180.129 18.8892H183.323L180.444 22.4194L183.506 27.1875H180.232L178.415 24.2139L177.485 24.9243V27.1875H174.606V15.791H177.485V20.2734C177.485 21.04 177.431 21.7896 177.324 22.522H177.382Z" fill="#183B56"/>
</svg>
